<?xml version="1.0" encoding="utf-8"?>
<!-- Generator: Adobe Illustrator 27.0.0, SVG Export Plug-In . SVG Version: 6.00 Build 0)  -->
<svg version="1.1" xmlns="http://www.w3.org/2000/svg" xmlns:xlink="http://www.w3.org/1999/xlink" x="0px" y="0px"
	 viewBox="0 0 400 101" style="enable-background:new 0 0 400 101;" xml:space="preserve">
<style type="text/css">
	.Arched_x0020_Green{fill:url(#SVGID_1_);stroke:#FFFFFF;stroke-width:0.25;stroke-miterlimit:1;}
	.st0{opacity:0.15;fill:#003595;}
	.st1{fill:#DBE1EF;}
	.st2{enable-background:new    ;}
	.st3{fill:#1D1E1B;}
	.st4{fill:#64B145;}
	.st5{fill:#24618E;}
	.st6{fill:#242E61;}
	.st7{fill:#1D1D1B;}
	.st8{fill:#0082CA;}
	.st9{fill:#7F7F7F;}
	.st10{fill:#003595;}
	.st11{fill:#E4A81F;}
	.st12{fill:#0A8537;}
	.st13{fill:#F4B020;}
	.st14{fill:#2A3064;}
	.st15{fill:#E31725;}
	.st16{fill:#E8E8E8;}
	.st17{fill:#F7F7F7;}
	.st18{fill:none;}
	.st19{opacity:0.4;}
	.st20{fill:#FFFFFF;}
	.st21{opacity:0.4;fill:#FFFFFF;}
	.st22{fill:none;stroke:#706F6F;stroke-width:0.5;stroke-miterlimit:10;}
</style>
<linearGradient id="SVGID_1_" gradientUnits="userSpaceOnUse" x1="1437.0037" y1="-1736.5945" x2="1437.7108" y2="-1737.3016">
	<stop  offset="0" style="stop-color:#1EAB4B"/>
	<stop  offset="0.9831" style="stop-color:#19361A"/>
</linearGradient>
<g id="Fondo">
</g>
<g id="LOGOS">
</g>
<g id="GUIAS_00000054969678216494513890000006574323110721258411_">
	<g>
		<g class="st2">
			<path class="st3" d="M189,96.1c-1.3,0-2.4-0.3-3.1-1c-0.8-0.7-1.1-1.6-1.1-2.7c0-1.4,0.6-2.5,1.8-3.3c1.2-0.8,2.9-1.3,5.2-1.4
				l1.7-0.1c0.3,0,0.4-0.2,0.4-0.4v-0.6c0-0.8-0.3-1.5-0.8-2c-0.5-0.5-1.2-0.7-2.1-0.7c-1.4,0-2.5,0.6-3.4,1.9
				c-0.1,0.1-0.1,0.2-0.2,0.2c-0.1,0-0.2,0-0.3,0l-1.8-0.5c-0.1,0-0.2-0.1-0.2-0.2c0-0.1,0-0.2,0.1-0.3c0.5-0.9,1.2-1.6,2.2-2.2
				c1-0.5,2.2-0.8,3.6-0.8c1.8,0,3.2,0.4,4.1,1.2c0.9,0.8,1.3,1.8,1.3,3.2v9.1c0,0.2,0,0.3-0.1,0.3c-0.1,0.1-0.2,0.1-0.3,0.1h-1.7
				c-0.2,0-0.4-0.2-0.4-0.5l-0.1-1c0-0.1-0.1-0.2-0.2-0.2c-0.1,0-0.1,0.1-0.3,0.2C192.2,95.5,190.7,96.1,189,96.1z M193.5,89.1
				l-1.4,0.1c-1.4,0.1-2.6,0.4-3.4,0.9c-0.8,0.5-1.3,1.2-1.3,2c0,0.7,0.2,1.2,0.7,1.6c0.5,0.4,1.1,0.6,1.9,0.6c0.9,0,1.8-0.3,2.6-1
				c0.7-0.6,1.1-1.2,1.1-1.8v-2C193.8,89.2,193.7,89,193.5,89.1z"/>
			<path class="st3" d="M199.9,95.5V82.6c0-0.3,0.1-0.4,0.3-0.4h2c0.2,0,0.3,0.1,0.3,0.3v1.4c0,0.1,0,0.2,0.1,0.2c0,0,0.1,0,0.2-0.1
				c0.9-0.7,1.7-1.3,2.4-1.6c0.7-0.3,1.4-0.5,2.2-0.5c1.3,0,2.3,0.4,3,1.1c0.7,0.7,1.1,1.7,1.1,2.9v9.5c0,0.3-0.1,0.5-0.4,0.5h-1.9
				c-0.3,0-0.4-0.1-0.4-0.4v-9c0-0.8-0.2-1.4-0.6-1.8c-0.4-0.4-1-0.6-1.8-0.6c-0.7,0-1.3,0.2-1.8,0.5c-0.6,0.3-1.2,0.8-2,1.5v9.5
				c0,0.2,0,0.3-0.1,0.3c-0.1,0.1-0.2,0.1-0.4,0.1h-1.8C200,95.9,199.9,95.7,199.9,95.5z"/>
		</g>
		<g class="st2">
			<path class="st3" d="M219.6,95.4c0-0.1,0-0.2,0.1-0.3l6.4-17.9c0.1-0.2,0.2-0.3,0.2-0.4c0.1-0.1,0.2-0.1,0.4-0.1h3.9
				c0.2,0,0.4,0.1,0.5,0.2c0.1,0.1,0.2,0.2,0.3,0.4l6.4,17.9c0,0.1,0.1,0.2,0.1,0.2c0,0.1,0,0.3-0.1,0.3c-0.1,0.1-0.2,0.1-0.3,0.1
				h-3.8c-0.3,0-0.4-0.1-0.5-0.4l-1.3-3.8c0-0.1-0.1-0.2-0.1-0.2c0,0-0.1-0.1-0.2-0.1h-6.3c-0.2,0-0.3,0.1-0.3,0.3l-1.4,3.8
				c-0.1,0.2-0.3,0.3-0.5,0.3h-3C219.7,95.9,219.6,95.7,219.6,95.4z M230.4,88c0.2,0,0.3-0.1,0.3-0.2c0-0.1,0-0.2,0-0.2l-2.2-6
				c-0.1-0.1-0.1-0.2-0.2-0.2c-0.1,0-0.1,0.1-0.2,0.2l-2.2,6c0,0.1-0.1,0.2-0.1,0.2c0,0.1,0.1,0.2,0.3,0.2H230.4z"/>
			<path class="st3" d="M244,95.3c0,0.2-0.1,0.4-0.2,0.5c-0.1,0.1-0.3,0.1-0.5,0.1h-2.7c-0.2,0-0.4,0-0.4-0.1
				c-0.1-0.1-0.1-0.2-0.1-0.4l0.1-18.1c0-0.3,0.1-0.5,0.4-0.5h3.1c0.3,0,0.4,0.2,0.4,0.5V95.3z"/>
			<path class="st3" d="M252.7,84.9c-0.2,0-0.3,0.1-0.3,0.3v6.2c0,0.6,0.1,1,0.4,1.3c0.3,0.2,0.7,0.4,1.3,0.4h1.4
				c0.1,0,0.2,0,0.3,0.1c0.1,0.1,0.1,0.2,0.1,0.3l0,1.6c0,0.3-0.2,0.6-0.6,0.6c-0.7,0.1-1.7,0.2-3.1,0.2c-1.2,0-2.1-0.3-2.8-0.9
				c-0.7-0.6-1-1.4-1-2.5v-7.2c0-0.3-0.1-0.4-0.3-0.4h-1.6c-0.3,0-0.5-0.1-0.5-0.4v-1.9c0-0.3,0.2-0.4,0.5-0.4h1.8
				c0.1,0,0.2-0.1,0.3-0.3l0.4-3.9c0-0.3,0.2-0.4,0.4-0.4h2.8c0.1,0,0.2,0,0.3,0.1c0.1,0.1,0.1,0.2,0.1,0.4v3.9
				c0,0.2,0.1,0.3,0.3,0.3h2.7c0.3,0,0.5,0.1,0.5,0.4v1.9c0,0.3-0.2,0.4-0.5,0.4H252.7z"/>
			<path class="st3" d="M262.1,79.9c0,0.4-0.2,0.6-0.7,0.6h-2.8c-0.2,0-0.4,0-0.4-0.1c-0.1-0.1-0.1-0.2-0.1-0.5v-2.7
				c0-0.3,0.1-0.5,0.4-0.5h3.2c0.1,0,0.2,0,0.3,0.1c0.1,0.1,0.1,0.2,0.1,0.4V79.9z M262,95.3c0,0.2-0.1,0.4-0.2,0.5
				c-0.1,0.1-0.3,0.1-0.5,0.1h-2.7c-0.2,0-0.4,0-0.4-0.1c-0.1-0.1-0.1-0.2-0.1-0.4V82.7c0-0.3,0.1-0.5,0.4-0.5h3.2
				c0.3,0,0.4,0.1,0.4,0.4V95.3z"/>
			<path class="st3" d="M268.4,96.1c-1.3,0-2.3-0.3-3.1-1c-0.8-0.7-1.1-1.6-1.1-2.7c0-1.4,0.7-2.6,2-3.5c1.3-0.9,3.1-1.3,5.5-1.4
				l0.9-0.1c0.1,0,0.2,0,0.3-0.1c0.1-0.1,0.1-0.2,0.1-0.3v-0.5c0-0.7-0.2-1.2-0.6-1.5c-0.4-0.4-0.9-0.5-1.6-0.5
				c-1.2,0-2.1,0.5-2.7,1.5c-0.1,0.2-0.2,0.3-0.3,0.3c-0.1,0-0.2,0-0.2,0l-2.6-0.6c-0.2,0-0.2-0.1-0.2-0.3c0-0.1,0-0.2,0.1-0.4
				c0.4-1,1.1-1.7,2.2-2.2c1.1-0.5,2.4-0.7,3.9-0.7c2,0,3.5,0.4,4.4,1.1c0.9,0.7,1.4,1.8,1.4,3.2v9.1c0,0.2,0,0.4-0.1,0.4
				c-0.1,0.1-0.2,0.1-0.4,0.1h-2.7c-0.2,0-0.3-0.1-0.4-0.2c-0.1-0.1-0.1-0.3-0.2-0.5l0-0.6c0-0.2-0.1-0.2-0.2-0.2
				c-0.1,0-0.2,0.1-0.4,0.2C271.3,95.6,270,96.1,268.4,96.1z M272.9,89.4c-0.1-0.1-0.2-0.1-0.3-0.1l-0.7,0.1c-1,0.1-1.9,0.3-2.6,0.7
				c-0.8,0.4-1.1,1-1.1,1.7c0,0.5,0.2,0.9,0.5,1.2c0.4,0.3,0.9,0.5,1.5,0.5c0.8,0,1.5-0.2,2-0.7c0.6-0.4,0.9-0.9,0.9-1.4v-1.7
				C273,89.6,272.9,89.5,272.9,89.4z"/>
		</g>
		<g class="st2">
			<path class="st3" d="M296.6,77.2c1.1,0.5,1.9,1.1,2.6,2c0.7,0.8,1.1,1.7,1.3,2.7c0,0.1,0,0.2,0,0.3c0,0.1,0,0.1-0.1,0.2
				c0,0-0.1,0-0.2,0.1l-2.4,0.2h-0.1c-0.1,0-0.2-0.1-0.2-0.3c-0.2-1.1-0.7-1.9-1.5-2.6c-0.7-0.6-1.6-1-2.7-1c-1.7,0-2.9,0.6-3.8,1.9
				c-0.9,1.2-1.3,3.1-1.3,5.7c0,2.5,0.4,4.4,1.3,5.6s2.2,1.9,3.9,1.9c1.2,0,2.1-0.3,2.9-0.9c0.8-0.6,1.4-1.5,1.9-2.7
				c0-0.1,0.1-0.2,0.4-0.1l1.8,0.4c0.2,0,0.2,0.2,0.2,0.4c-0.2,0.8-0.7,1.6-1.3,2.4c-0.6,0.8-1.5,1.5-2.5,2c-1,0.5-2.2,0.8-3.6,0.8
				c-1.7,0-3.2-0.4-4.5-1.2c-1.3-0.8-2.2-2-2.9-3.4c-0.7-1.5-1-3.2-1-5.2c0-2,0.3-3.8,1-5.2c0.7-1.5,1.6-2.6,2.9-3.4
				c1.2-0.8,2.7-1.2,4.4-1.2C294.5,76.5,295.6,76.7,296.6,77.2z"/>
			<path class="st3" d="M306.1,95.2c-1-0.6-1.8-1.4-2.3-2.5c-0.6-1.1-0.8-2.3-0.8-3.6c0-1.4,0.3-2.6,0.9-3.7s1.4-1.9,2.4-2.5
				c1-0.6,2.2-0.9,3.4-0.9c1.3,0,2.5,0.3,3.5,0.9c1,0.6,1.8,1.5,2.3,2.5s0.8,2.3,0.8,3.7c0,1.4-0.3,2.6-0.8,3.6
				c-0.6,1.1-1.3,1.9-2.3,2.5c-1,0.6-2.2,0.9-3.5,0.9C308.3,96.1,307.1,95.8,306.1,95.2z M312.5,92.8c0.7-0.9,1-2.2,1-3.8
				c0-1.6-0.3-2.9-1-3.8c-0.7-0.9-1.6-1.4-2.8-1.4c-1.2,0-2.2,0.5-2.8,1.4c-0.7,0.9-1,2.2-1,3.8c0,1.6,0.3,2.9,1,3.8
				c0.7,0.9,1.6,1.4,2.9,1.4C310.8,94.2,311.8,93.7,312.5,92.8z"/>
			<path class="st3" d="M319.1,95.5V82.6c0-0.3,0.1-0.4,0.3-0.4h2c0.2,0,0.3,0.1,0.3,0.3v1.4c0,0.1,0,0.2,0.1,0.2
				c0.1,0,0.1,0,0.2-0.1c0.9-0.7,1.6-1.3,2.3-1.6c0.7-0.3,1.4-0.5,2.2-0.5c0.9,0,1.7,0.2,2.4,0.6c0.6,0.4,1.1,1,1.3,1.7
				c0,0.1,0.1,0.1,0.1,0.1c0.1,0,0.1,0,0.2-0.1c0.8-0.7,1.6-1.3,2.3-1.7c0.7-0.4,1.5-0.6,2.3-0.6c1.2,0,2.2,0.4,2.9,1.1
				c0.7,0.7,1,1.7,1,2.9v9.5c0,0.3-0.2,0.5-0.5,0.5h-1.9c-0.1,0-0.2,0-0.3-0.1c-0.1-0.1-0.1-0.2-0.1-0.3v-9c0-0.8-0.2-1.4-0.6-1.8
				c-0.4-0.4-0.9-0.6-1.7-0.6c-1,0-2.1,0.5-3.3,1.6c-0.1,0.1-0.2,0.2-0.3,0.3c-0.1,0.1-0.1,0.2-0.1,0.4v9c0,0.3-0.2,0.5-0.5,0.5
				h-1.9c-0.3,0-0.4-0.1-0.4-0.4v-9c0-0.8-0.2-1.4-0.6-1.8c-0.4-0.4-0.9-0.6-1.7-0.6c-0.6,0-1.2,0.2-1.7,0.5
				c-0.5,0.3-1.2,0.8-1.9,1.5v9.5c0,0.2,0,0.3-0.1,0.3c-0.1,0.1-0.2,0.1-0.4,0.1h-1.8C319.3,95.9,319.1,95.7,319.1,95.5z"/>
			<path class="st3" d="M345.4,82.6v1c0,0.1,0,0.2,0.1,0.2c0,0,0.1,0,0.2-0.1c0.5-0.5,1.1-0.9,1.6-1.3c0.6-0.3,1.3-0.5,2.3-0.5
				c1.1,0,2,0.3,2.9,0.8c0.8,0.5,1.5,1.3,2,2.3c0.5,1,0.7,2.3,0.7,3.8c0,1.5-0.2,2.9-0.7,4c-0.5,1.1-1.2,1.9-2,2.5
				c-0.9,0.6-1.9,0.8-3,0.8c-1.4,0-2.6-0.4-3.6-1.3c-0.1-0.1-0.2-0.2-0.3-0.2c-0.1,0-0.1,0.1-0.1,0.3v4.8c0,0.2-0.1,0.4-0.3,0.4H343
				c-0.2,0-0.3-0.1-0.3-0.4V82.7c0-0.2,0-0.3,0.1-0.4c0.1-0.1,0.2-0.1,0.4-0.1h1.8C345.2,82.2,345.4,82.3,345.4,82.6z M346.9,93.9
				c0.5,0.3,1.1,0.4,1.7,0.4c1.2,0,2.1-0.5,2.8-1.4s1-2.3,1-4c0-1.7-0.3-3-1-3.8c-0.7-0.8-1.6-1.2-2.7-1.2c-0.6,0-1.2,0.1-1.7,0.4
				c-0.5,0.3-0.9,0.6-1.2,1c-0.3,0.4-0.4,0.8-0.4,1.3v6.2C345.9,93.2,346.4,93.6,346.9,93.9z"/>
			<path class="st3" d="M361.6,96.1c-1.3,0-2.4-0.3-3.1-1c-0.8-0.7-1.1-1.6-1.1-2.7c0-1.4,0.6-2.5,1.8-3.3c1.2-0.8,2.9-1.3,5.2-1.4
				l1.7-0.1c0.3,0,0.4-0.2,0.4-0.4v-0.6c0-0.8-0.3-1.5-0.8-2c-0.5-0.5-1.2-0.7-2.1-0.7c-1.4,0-2.5,0.6-3.4,1.9
				c-0.1,0.1-0.1,0.2-0.2,0.2c-0.1,0-0.2,0-0.3,0l-1.8-0.5c-0.1,0-0.2-0.1-0.2-0.2c0-0.1,0-0.2,0.1-0.3c0.5-0.9,1.2-1.6,2.2-2.2
				c1-0.5,2.2-0.8,3.6-0.8c1.8,0,3.2,0.4,4.1,1.2c0.9,0.8,1.3,1.8,1.3,3.2v9.1c0,0.2,0,0.3-0.1,0.3c-0.1,0.1-0.2,0.1-0.3,0.1h-1.7
				c-0.2,0-0.4-0.2-0.4-0.5l-0.1-1c0-0.1-0.1-0.2-0.2-0.2c-0.1,0-0.1,0.1-0.3,0.2C364.7,95.5,363.2,96.1,361.6,96.1z M366,89.1
				l-1.4,0.1c-1.4,0.1-2.6,0.4-3.4,0.9c-0.8,0.5-1.3,1.2-1.3,2c0,0.7,0.2,1.2,0.7,1.6c0.5,0.4,1.1,0.6,1.9,0.6c0.9,0,1.8-0.3,2.6-1
				c0.7-0.6,1.1-1.2,1.1-1.8v-2C366.4,89.2,366.2,89,366,89.1z"/>
			<path class="st3" d="M372.4,95.5V82.6c0-0.3,0.1-0.4,0.3-0.4h2c0.2,0,0.3,0.1,0.3,0.3v1.4c0,0.1,0,0.2,0.1,0.2c0,0,0.1,0,0.2-0.1
				c0.9-0.7,1.7-1.3,2.4-1.6c0.7-0.3,1.4-0.5,2.2-0.5c1.3,0,2.3,0.4,3,1.1c0.7,0.7,1.1,1.7,1.1,2.9v9.5c0,0.3-0.1,0.5-0.4,0.5h-1.9
				c-0.3,0-0.4-0.1-0.4-0.4v-9c0-0.8-0.2-1.4-0.6-1.8c-0.4-0.4-1-0.6-1.8-0.6c-0.7,0-1.3,0.2-1.8,0.5c-0.6,0.3-1.2,0.8-2,1.5v9.5
				c0,0.2,0,0.3-0.1,0.3c-0.1,0.1-0.2,0.1-0.4,0.1h-1.8C372.5,95.9,372.4,95.7,372.4,95.5z"/>
			<path class="st3" d="M387.3,100.1c-0.2,0-0.3-0.2-0.3-0.3v-1.3c0-0.2,0.2-0.4,0.7-0.4h1.7c0.4,0,0.7-0.1,1.1-0.4
				c0.3-0.3,0.6-0.6,0.8-1c0.2-0.4,0.3-0.8,0.3-1.2c0-0.2,0-0.4-0.1-0.6l-4.9-12.3c0,0,0-0.1,0-0.2c0-0.2,0.1-0.3,0.4-0.3h2.1
				c0.1,0,0.2,0,0.3,0.1c0.1,0.1,0.1,0.1,0.2,0.2l3.6,9.3c0.1,0.2,0.1,0.2,0.2,0.2c0.1,0,0.2-0.1,0.3-0.3l3.5-9.2
				c0.1-0.2,0.2-0.3,0.4-0.3h1.5c0.1,0,0.2,0,0.3,0.1c0.1,0.1,0.1,0.2,0,0.3l-5.6,14.1c-0.4,0.9-0.8,1.6-1.2,2.1
				c-0.4,0.5-1,0.8-1.6,1s-1.3,0.3-2.2,0.3C387.9,100.1,387.5,100.1,387.3,100.1z"/>
		</g>
		<g>
			<g>
				<path class="st4" d="M63.1,30.1h12.5c-0.8-4.6-2.8-9-5.9-12.4c-5.2-5.7-12.1-7.5-18.5-4.7C58.3,17.1,61.9,23,63.1,30.1z"/>
				<path class="st4" d="M51,58.2c6.9,2.4,12.7,1,17.7-3.8c3.7-3.6,6-8.6,7-13.8H63.2C62,47.9,58.3,53.9,51,58.2z"/>
				<path class="st5" d="M28.7,34.5C29.5,18.4,39,6.4,54.6,1.3c-10.1-3.4-26.8-0.4-36.7,13c-4.2,5.6-6.5,12.2-6.9,18.9H2.4
					c-1.3,0-2.4,1.1-2.4,2.4v0c0,1.3,1.1,2.4,2.4,2.4H11c0.5,7.2,3.1,14.2,7.8,20c9.7,11.8,25.6,15.2,35.4,11.8
					C34.3,62.8,28.2,46.1,28.7,34.5z"/>
				<path class="st5" d="M86.9,33.1H42.8c-1.3,0-2.4,1.1-2.4,2.4v0c0,1.3,1.1,2.4,2.4,2.4h44.1c1.3,0,2.4-1.1,2.4-2.4v0
					C89.3,34.2,88.2,33.1,86.9,33.1z"/>
			</g>
			<path class="st5" d="M109.2,33.9c2.6-4.8,6.5-7.6,11.3-7.6c5.6,0,8.6,4.2,8.6,10.2c0,12.3-7.8,22.3-19.7,22.3
				c-3.7,0-7.4-0.6-11.1-1.6l9.1-44.1h6.1L109.2,33.9z M105.2,53.7c1.6,0.4,3,0.5,4.4,0.5c7.9,0,13.1-7.9,13.1-17.1
				c0-3.8-1.7-6.2-4.6-6.2c-4.6,0-9.6,6.3-11.1,13.1L105.2,53.7z"/>
			<path class="st5" d="M131,58.2l6.4-31.2h6.1l-6.4,31.2H131z M138.6,20.5l1.2-6.1h6.3l-1.2,6.1H138.6z"/>
			<path class="st5" d="M144.3,58.2l9.3-45h6.1l-9.3,45H144.3z"/>
			<path class="st5" d="M169.2,33.9c2.6-4.8,6.5-7.6,11.3-7.6c5.6,0,8.6,4.2,8.6,10.2c0,12.3-7.8,22.3-19.7,22.3
				c-3.7,0-7.4-0.6-11.1-1.6l9.1-44.1h6.1L169.2,33.9z M165.2,53.7c1.6,0.4,3,0.5,4.4,0.5c7.9,0,13.1-7.9,13.1-17.1
				c0-3.8-1.7-6.2-4.6-6.2c-4.6,0-9.6,6.3-11.1,13.1L165.2,53.7z"/>
			<path class="st5" d="M192.4,47.6c0-11.4,6.8-21.3,18.6-21.3c6.5,0,11.9,3.9,11.9,11.2c0,11.2-6.8,21.3-18.4,21.3
				c-3.4,0-6.4-0.9-8.6-2.7C193.7,54.3,192.4,51.4,192.4,47.6z M205.2,54.2c7,0,11.3-9.2,11.3-15.5c0-4.4-1.5-7.7-6.7-7.7
				c-7.2,0-11,9.2-11,15.7c0,2.2,0.3,4,1.2,5.4C201,53.4,202.6,54.2,205.2,54.2z"/>
			<path class="st5" d="M224.6,58.2l4.9-24c0.5-2.4,0.9-4.7,1.2-7.2h5.8l-0.9,5.4c2.7-4,5.9-6.1,10.7-6.1c3.8,0,6.9,2.4,7.1,6.5
				c2.4-3.8,6.1-6.5,10.7-6.5c4.7,0,8,2.6,8,7.6c0,1.2-0.2,2.2-0.4,3.4l-4.3,20.8h-6.2l4.1-20.3c0.2-0.9,0.3-1.9,0.3-2.7
				c0-2.8-1.4-4.2-4.2-4.2c-4.9,0-7.8,5.2-8.8,9.6l-3.6,17.6h-6.1l4.1-20.3c0.2-0.9,0.3-1.9,0.3-2.7c0-2.9-1.5-4.2-4.3-4.2
				c-4.9,0-7.9,5.4-8.6,9.6l-3.6,17.6H224.6z"/>
			<path class="st5" d="M295.3,58.2c0.1-1.7,0.4-4.7,1-7.9c-2.9,5.6-7.2,8.6-12.1,8.6c-5.6,0-8.8-3.9-8.8-10.2
				c0-11.7,8.8-22.3,22-22.3c3.4,0,6.3,0.5,9.3,1.2L303,44.4c-1.2,5.8-2,11-2,13.7H295.3z M299.6,31.5c-1-0.4-2.1-0.6-3.3-0.6
				c-8.3,0-14.7,8.6-14.7,17.2c0,3.8,1.8,6.1,5,6.1c4.7,0,9.8-7.5,11.1-13.6L299.6,31.5z M308,20.2l-13.8,0l-0.6,3.3h13.8L308,20.2z
				"/>
			<path class="st5" d="M323.7,57.8c-1.5,0.7-3.3,1-5.5,1c-3.6,0-6.7-1.7-6.7-6.2c0-1.3,0.2-3,0.5-4.6l3.5-16.6H310l1-4.6h5.5
				l1.3-6.7l6.6-2.1l-1.8,8.8h6.7l-0.9,4.6h-6.7L318.3,48c-0.2,1.2-0.4,2.4-0.4,3.4c0,2,1.2,2.9,2.9,2.9c1.2,0,2.3-0.3,3.6-0.8
				L323.7,57.8z"/>
			<path class="st5" d="M327.3,58.2l6.4-31.2h6.1l-6.4,31.2H327.3z M334.9,20.5l1.2-6.1h6.3l-1.2,6.1H334.9z"/>
			<path class="st5" d="M362.4,57.7c-2.2,0.7-4.6,1.1-7.3,1.1c-6.6,0-13.2-2.8-13.2-11.6c0-11.5,7.6-20.9,19.4-20.9
				c2.7,0,5.2,0.4,7.3,1.2l-1.3,4.9c-1.9-1.1-4-1.5-6.1-1.5c-8,0-12.8,7.8-12.8,14.9c0,6.5,3.8,8.4,8.5,8.4c1.9,0,4.3-0.4,6.3-1.4
				L362.4,57.7z"/>
			<path class="st5" d="M387.8,58.2c0.1-1.7,0.4-4.7,1-7.9c-2.9,5.6-7.2,8.6-12.1,8.6c-5.6,0-8.8-3.9-8.8-10.2
				c0-11.7,8.8-22.3,22-22.3c3.4,0,6.3,0.5,9.3,1.2l-3.5,16.9c-1.2,5.8-2,11-2,13.7H387.8z M392.2,31.5c-1-0.4-2.1-0.6-3.3-0.6
				c-8.3,0-14.7,8.6-14.7,17.2c0,3.8,1.8,6.1,5,6.1c4.7,0,9.8-7.5,11.1-13.6L392.2,31.5z"/>
		</g>
	</g>
</g>
</svg>
