<?xml version="1.0" encoding="UTF-8" standalone="no"?>
<svg xmlns:dc="http://purl.org/dc/elements/1.1/" xmlns:cc="http://creativecommons.org/ns#" xmlns:rdf="http://www.w3.org/1999/02/22-rdf-syntax-ns#" xmlns:svg="http://www.w3.org/2000/svg" xmlns="http://www.w3.org/2000/svg" xmlns:sodipodi="http://sodipodi.sourceforge.net/DTD/sodipodi-0.dtd" xmlns:inkscape="http://www.inkscape.org/namespaces/inkscape" version="1.1" id="svg2" xml:space="preserve" width="604.33588" height="195.07329" viewBox="0 0 604.33587 195.07328" sodipodi:docname="web01-GV_itzuli_logotipo.svg" inkscape:version="1.0 (4035a4fb49, 2020-05-01)"><metadata id="metadata8"><rdf:RDF><cc:Work rdf:about=""><dc:format>image/svg+xml</dc:format><dc:type rdf:resource="http://purl.org/dc/dcmitype/StillImage"/><dc:title/></cc:Work></rdf:RDF></metadata><defs id="defs6"><clipPath clipPathUnits="userSpaceOnUse" id="clipPath20"><path d="M 0,595.276 H 841.89 V 0 H 0 Z" id="path18"/></clipPath></defs><sodipodi:namedview inkscape:document-rotation="0" pagecolor="#ffffff" bordercolor="#666666" borderopacity="1" objecttolerance="10" gridtolerance="10" guidetolerance="10" inkscape:pageopacity="0" inkscape:pageshadow="2" inkscape:window-width="1920" inkscape:window-height="1027" id="namedview4" showgrid="false" inkscape:zoom="0.59868331" inkscape:cx="480.56392" inkscape:cy="-64.132142" inkscape:window-x="-8" inkscape:window-y="-8" inkscape:window-maximized="1" inkscape:current-layer="g10" inkscape:pagecheckerboard="true" fit-margin-top="0" fit-margin-left="0" fit-margin-right="0" fit-margin-bottom="0"/><g id="g10" inkscape:groupmode="layer" inkscape:label="itzuli_rgb" transform="matrix(1.3333333,0,0,-1.3333333,-259.09225,493.87812)"><path d="M 0,0 H 841.89 V 595.275 H 0 Z" style="fill:none;fill-opacity:1;fill-rule:nonzero;stroke:none" id="path12"/><g id="g14"><g id="g16" clip-path="url(#clipPath20)"><g id="g22" transform="translate(596.1951,357.821)"><path d="m 0,0 c 2.805,0 5.151,-0.961 7.041,-2.877 1.887,-1.919 2.938,-4.241 3.155,-6.967 v -72.432 c 0,-2.725 -0.918,-4.997 -2.751,-6.814 C 5.61,-90.908 3.128,-91.916 0,-92.12 c -2.807,0 -5.178,0.807 -7.119,2.424 -1.944,1.613 -3.133,3.885 -3.562,6.815 v 73.643 c 0.214,2.625 1.349,4.795 3.399,6.512 C -5.234,-1.011 -2.807,-0.102 0,0" style="fill:#1b397f;fill-opacity:1;fill-rule:nonzero;stroke:none" id="path24"/></g><g id="g26" transform="translate(430.1643,280.5959)"><path d="M 0,0 34.513,37.773 H 0.815 V 53.125 H 58.698 V 38.18 L 25.545,0.543 H 60.738 V -14.812 H 0 Z" style="fill:#1b397f;fill-opacity:1;fill-rule:nonzero;stroke:none" id="path28"/></g><g id="g30" transform="translate(568.3503,333.7214)"><path d="m 0,0 v -67.937 h -17.527 v 7.744 c -4.349,-5.569 -11.007,-9.376 -20.246,-9.376 -16.305,0 -27.855,11.414 -27.855,29.352 V 0 h 21.061 v -39.131 c 0,-7.338 4.484,-12.637 11.549,-12.637 7.473,0 12.094,5.299 12.094,13.045 V 0 Z" style="fill:#1b397f;fill-opacity:1;fill-rule:nonzero;stroke:none" id="path32"/></g><g id="g34" transform="translate(634.7581,333.8186)"><path d="m 0,0 c 2.805,0 5.151,-0.961 7.04,-2.877 1.887,-1.92 2.939,-4.241 3.155,-6.967 v -48.429 c 0,-2.726 -0.917,-4.998 -2.75,-6.815 -1.836,-1.817 -4.317,-2.825 -7.445,-3.029 -2.807,0 -5.178,0.806 -7.12,2.424 -1.943,1.613 -3.132,3.884 -3.562,6.814 v 49.641 c 0.215,2.624 1.349,4.794 3.4,6.512 C -5.235,-1.011 -2.807,-0.102 0,0 m -13.141,23.547 c 0,7.202 5.707,13.043 12.909,13.043 7.201,0 13.045,-5.841 13.045,-13.043 0,-7.067 -5.844,-12.908 -13.045,-12.908 -7.202,0 -12.909,5.841 -12.909,12.908" style="fill:#1b397f;fill-opacity:1;fill-rule:nonzero;stroke:none" id="path36"/></g><g id="g38" transform="translate(634.7581,333.8186)"><path d="m 0,0 c 2.805,0 5.151,-0.961 7.04,-2.877 1.887,-1.92 2.939,-4.241 3.155,-6.967 v -48.429 c 0,-2.726 -0.917,-4.998 -2.75,-6.815 -1.836,-1.817 -4.317,-2.825 -7.445,-3.029 -2.807,0 -5.178,0.806 -7.12,2.424 -1.943,1.613 -3.132,3.884 -3.562,6.814 v 49.641 c 0.215,2.624 1.349,4.794 3.4,6.512 C -5.235,-1.011 -2.807,-0.102 0,0" style="fill:#1b397f;fill-opacity:1;fill-rule:nonzero;stroke:none" id="path40"/></g><g id="g42" transform="translate(418.3445,283.8567)"><path d="m 0,0 c 0,0 -0.273,0.795 -0.878,0.819 -0.289,0.011 -1.381,-0.645 -1.703,-0.858 -0.538,-0.357 -1.336,-0.816 -2.344,-1.185 -0.61,-0.223 -1.879,-0.679 -3.5,-0.679 -4.755,0 -8.153,2.581 -8.153,9.647 v 7.609 c 0.004,0.113 0.015,0.223 0.015,0.338 v 18.684 h 19.96 v 15.49 h -19.96 v 14.256 c -0.216,2.726 -1.265,5.047 -3.146,6.966 -1.885,1.916 -4.225,2.877 -7.022,2.877 -2.799,-0.101 -5.22,-1.01 -7.263,-2.726 -2.044,-1.717 -3.175,-3.887 -3.389,-6.511 V 49.865 h -11.805 v -15.49 h 11.805 v -19.29 c 0.004,-0.028 0.013,-0.052 0.018,-0.081 V 5.706 c 0,-17.8 11.957,-25.41 25.271,-25.41 6.524,0 12.502,2.04 17.121,5.435 0,0 0.782,0.53 0.874,0.848 0.073,0.247 -0.194,0.784 -0.194,0.784 z" style="fill:#1b397f;fill-opacity:1;fill-rule:nonzero;stroke:none" id="path44"/></g><g id="g46" transform="translate(335.0505,357.3654)"><path d="M 0,0 C 0,7.202 5.707,13.043 12.908,13.043 20.11,13.043 25.954,7.202 25.954,0 25.954,-7.066 20.11,-12.908 12.908,-12.908 5.707,-12.908 0,-7.066 0,0" style="fill:#2bb88b;fill-opacity:1;fill-rule:nonzero;stroke:none;stroke-opacity:1" id="path48"/></g><g id="g50" transform="translate(348.1912,333.8186)"><path d="m 0,0 c 2.805,0 5.151,-0.961 7.041,-2.877 1.887,-1.92 2.938,-4.241 3.155,-6.967 v -48.429 c 0,-2.726 -0.918,-4.998 -2.751,-6.815 C 5.61,-66.905 3.128,-67.913 0,-68.117 c -2.807,0 -5.178,0.806 -7.119,2.424 -1.944,1.613 -3.133,3.884 -3.562,6.814 v 49.641 c 0.214,2.624 1.349,4.794 3.399,6.512 C -5.234,-1.011 -2.807,-0.102 0,0" style="fill:#1b397f;fill-opacity:1;fill-rule:nonzero;stroke:none" id="path52"/></g><g id="g54" transform="translate(238.0725,353.2878)"><path d="M 0,0 C 3.773,6.134 11.694,8.121 17.828,4.348 23.962,0.576 25.88,-7.462 22.107,-13.596 18.405,-19.615 10.368,-21.53 4.233,-17.757 -1.901,-13.985 -3.702,-6.019 0,0" style="fill:#2bb88b;fill-opacity:1;fill-rule:nonzero;stroke:none;stroke-opacity:1" id="path56"/></g><g id="g58" transform="translate(236.9304,326.3464)"><path d="m 0,0 c 2.389,-1.469 3.884,-3.517 4.49,-6.139 0.602,-2.624 0.281,-5.152 -0.962,-7.587 l -27.005,-43.66 c -1.428,-2.322 -3.399,-3.777 -5.913,-4.364 -2.515,-0.587 -5.157,-0.145 -7.928,1.32 -2.391,1.47 -3.988,3.399 -4.795,5.794 -0.81,2.392 -0.633,4.95 0.536,7.67 l 27.639,44.693 c 1.558,2.123 3.661,3.377 6.307,3.766 C -4.988,1.881 -2.444,1.384 0,0" style="fill:#1b397f;fill-opacity:1;fill-rule:nonzero;stroke:none" id="path60"/></g><path d="m 338.376,236.591 h 0.871 v -11.449 h -0.871 z m -0.504,2.977 c 0,0.503 0.434,0.916 0.94,0.916 0.503,0 0.938,-0.413 0.938,-0.916 0,-0.527 -0.435,-0.939 -0.938,-0.939 -0.506,0 -0.94,0.412 -0.94,0.939" style="fill:#2bb88b;fill-opacity:1;fill-rule:nonzero;stroke:#2bb88b;stroke-width:1.52475;stroke-miterlimit:4;stroke-dasharray:none;stroke-opacity:1" id="path62"/><g id="g64" transform="translate(351.0618,225.6457)"><path d="m 0,0 -0.023,-0.114 c -0.526,-0.413 -1.168,-0.665 -1.992,-0.665 -1.923,0 -3.069,1.168 -3.069,3.298 v 7.648 h -2.061 v 0.778 h 2.061 v 3.596 l 0.755,0.114 0.115,-0.068 v -3.642 h 3.756 V 10.167 H -4.214 V 2.564 c 0,-1.671 0.801,-2.542 2.245,-2.542 0.549,0 1.144,0.161 1.557,0.55 l 0.091,-0.023 z" style="fill:#2bb88b;fill-opacity:1;fill-rule:nonzero;stroke:#2bb88b;stroke-width:1.52475;stroke-miterlimit:4;stroke-dasharray:none;stroke-opacity:1" id="path66"/></g><g id="g68" transform="translate(353.9905,225.76)"><path d="M 0,0 7.718,10.099 H 0.39 v 0.732 H 8.816 V 10.213 L 1.122,0.114 H 9.251 V -0.618 H 0 Z" style="fill:#2bb88b;fill-opacity:1;fill-rule:nonzero;stroke:#2bb88b;stroke-width:1.52475;stroke-miterlimit:4;stroke-dasharray:none;stroke-opacity:1" id="path70"/></g><g id="g72" transform="translate(377.302,236.591)"><path d="m 0,0 v -11.449 h -0.847 v 2.084 c -0.756,-1.42 -2.245,-2.36 -4.191,-2.36 -2.518,0 -4.396,1.787 -4.396,4.604 V 0 h 0.869 v -7.121 c 0,-2.291 1.535,-3.802 3.641,-3.802 2.451,0 4.053,1.718 4.053,3.985 V 0 Z" style="fill:#2bb88b;fill-opacity:1;fill-rule:nonzero;stroke:#2bb88b;stroke-width:1.52475;stroke-miterlimit:4;stroke-dasharray:none;stroke-opacity:1" id="path74"/></g><g id="g76" transform="translate(383.574,240.6438)"><path d="M 0,0 0.779,0.115 0.87,0.047 V -15.502 H 0 Z" style="fill:#2bb88b;fill-opacity:1;fill-rule:nonzero;stroke:#2bb88b;stroke-width:1.52475;stroke-miterlimit:4;stroke-dasharray:none;stroke-opacity:1" id="path78"/></g><g id="g80" transform="translate(396.26,225.6457)"><path d="m 0,0 -0.023,-0.114 c -0.526,-0.413 -1.168,-0.665 -1.992,-0.665 -1.923,0 -3.069,1.168 -3.069,3.298 v 7.648 h -2.061 v 0.778 h 2.061 v 3.596 l 0.755,0.114 0.115,-0.068 v -3.642 h 3.756 V 10.167 H -4.214 V 2.564 c 0,-1.671 0.801,-2.542 2.245,-2.542 0.549,0 1.144,0.161 1.556,0.55 l 0.092,-0.023 z" style="fill:#2bb88b;fill-opacity:1;fill-rule:nonzero;stroke:#2bb88b;stroke-width:1.52475;stroke-miterlimit:4;stroke-dasharray:none;stroke-opacity:1" id="path82"/></g><g id="g84" transform="translate(399.1882,225.76)"><path d="M 0,0 7.718,10.099 H 0.391 v 0.732 H 8.817 V 10.213 L 1.123,0.114 H 9.251 V -0.618 H 0 Z" style="fill:#2bb88b;fill-opacity:1;fill-rule:nonzero;stroke:#2bb88b;stroke-width:1.52475;stroke-miterlimit:4;stroke-dasharray:none;stroke-opacity:1" id="path86"/></g><g id="g88" transform="translate(420.8977,229.218)"><path d="m 0,0 v 1.03 c -0.94,0.549 -2.497,1.099 -4.031,1.099 -2.267,0 -3.801,-1.145 -3.801,-2.907 0,-1.65 1.42,-2.772 3.503,-2.772 C -2.108,-3.55 0,-2.268 0,0 M 0.847,3.319 V -4.076 H 0 v 1.923 c -0.871,-1.419 -2.542,-2.199 -4.351,-2.199 -2.588,0 -4.375,1.444 -4.375,3.596 0,2.198 1.902,3.664 4.672,3.664 1.512,0 2.954,-0.435 4.054,-1.054 v 1.581 c 0,2.014 -1.466,3.412 -3.71,3.412 -1.466,0 -2.908,-0.642 -3.915,-1.626 H -7.74 l -0.389,0.526 v 0.092 c 1.075,1.076 2.725,1.808 4.419,1.808 2.839,0 4.557,-1.694 4.557,-4.328" style="fill:#2bb88b;fill-opacity:1;fill-rule:nonzero;stroke:#2bb88b;stroke-width:1.52475;stroke-miterlimit:4;stroke-dasharray:none;stroke-opacity:1" id="path90"/></g><path d="m 427.857,236.591 h 0.871 v -11.449 h -0.871 z m -0.504,2.977 c 0,0.503 0.435,0.916 0.94,0.916 0.504,0 0.938,-0.413 0.938,-0.916 0,-0.527 -0.434,-0.939 -0.938,-0.939 -0.505,0 -0.94,0.412 -0.94,0.939" style="fill:#2bb88b;fill-opacity:1;fill-rule:nonzero;stroke:#2bb88b;stroke-width:1.52475;stroke-miterlimit:4;stroke-dasharray:none;stroke-opacity:1" id="path92"/><g id="g94" transform="translate(435.0686,240.6438)"><path d="M 0,0 0.779,0.115 0.871,0.047 V -15.502 H 0 Z" style="fill:#2bb88b;fill-opacity:1;fill-rule:nonzero;stroke:#2bb88b;stroke-width:1.52475;stroke-miterlimit:4;stroke-dasharray:none;stroke-opacity:1" id="path96"/></g><g id="g98" transform="translate(442.2361,231.3703)"><path d="M 0,0 H 9.32 C 9.251,1.008 8.976,1.9 8.518,2.633 7.762,3.893 6.503,4.694 4.763,4.694 2.061,4.694 0.16,2.748 0,0 m 0,-0.802 c 0.137,-3 2.313,-4.9 4.946,-4.9 1.695,0 3.435,0.848 4.351,2.13 h 0.091 l 0.528,-0.436 v -0.114 c -1.054,-1.465 -3.023,-2.382 -4.97,-2.382 -3.137,0 -5.839,2.313 -5.839,6 0,3.389 2.289,5.999 5.633,5.999 1.947,0 3.458,-0.87 4.351,-2.243 0.733,-0.985 1.144,-2.268 1.144,-3.664 0,-0.161 -0.022,-0.275 -0.022,-0.39 z" style="fill:#2bb88b;fill-opacity:1;fill-rule:nonzero;stroke:#2bb88b;stroke-width:1.52475;stroke-miterlimit:4;stroke-dasharray:none;stroke-opacity:1" id="path100"/></g><g id="g102" transform="translate(475.5974,232.2629)"><path d="m 0,0 v -7.121 h -0.869 v 7.075 c 0,2.336 -1.535,3.848 -3.847,3.848 -2.451,0 -4.099,-1.718 -4.099,-3.986 V -7.121 H -9.686 V 4.328 h 0.825 v -2.13 c 0.756,1.444 2.267,2.405 4.258,2.405 C -1.854,4.603 0,2.771 0,0" style="fill:#2bb88b;fill-opacity:1;fill-rule:nonzero;stroke:#2bb88b;stroke-width:1.52475;stroke-miterlimit:4;stroke-dasharray:none;stroke-opacity:1" id="path104"/></g><g id="g106" transform="translate(481.6409,231.3703)"><path d="M 0,0 H 9.321 C 9.251,1.008 8.976,1.9 8.518,2.633 7.763,3.893 6.503,4.694 4.764,4.694 2.061,4.694 0.161,2.748 0,0 m 0,-0.802 c 0.137,-3 2.313,-4.9 4.946,-4.9 1.696,0 3.435,0.848 4.351,2.13 h 0.092 l 0.527,-0.436 v -0.114 c -1.053,-1.465 -3.022,-2.382 -4.97,-2.382 -3.137,0 -5.839,2.313 -5.839,6 0,3.389 2.289,5.999 5.633,5.999 1.947,0 3.458,-0.87 4.351,-2.243 0.733,-0.985 1.144,-2.268 1.144,-3.664 0,-0.161 -0.022,-0.275 -0.022,-0.39 z" style="fill:#2bb88b;fill-opacity:1;fill-rule:nonzero;stroke:#2bb88b;stroke-width:1.52475;stroke-miterlimit:4;stroke-dasharray:none;stroke-opacity:1" id="path108"/></g><g id="g110" transform="translate(506.3254,236.591)"><path d="m 0,0 v -11.449 h -0.847 v 2.084 c -0.756,-1.42 -2.244,-2.36 -4.19,-2.36 -2.52,0 -4.397,1.787 -4.397,4.604 V 0 h 0.869 v -7.121 c 0,-2.291 1.535,-3.802 3.641,-3.802 2.451,0 4.054,1.718 4.054,3.985 V 0 Z" style="fill:#2bb88b;fill-opacity:1;fill-rule:nonzero;stroke:#2bb88b;stroke-width:1.52475;stroke-miterlimit:4;stroke-dasharray:none;stroke-opacity:1" id="path112"/></g><g id="g114" transform="translate(518.2092,236.4768)"><path d="m 0,0 -0.298,-0.642 -0.091,-0.045 c -0.343,0.183 -0.734,0.252 -1.146,0.252 -1.717,0 -3.251,-1.74 -3.251,-4.305 v -6.595 h -0.87 V 0.114 h 0.825 v -2.22 c 0.664,1.556 1.945,2.495 3.389,2.495 0.504,0 0.984,-0.091 1.42,-0.297 z" style="fill:#2bb88b;fill-opacity:1;fill-rule:nonzero;stroke:#2bb88b;stroke-width:1.52475;stroke-miterlimit:4;stroke-dasharray:none;stroke-opacity:1" id="path116"/></g><g id="g118" transform="translate(532.1531,230.8664)"><path d="m 0,0 c 0,2.954 -2.199,5.198 -5.175,5.198 -2.977,0 -5.176,-2.244 -5.176,-5.198 0,-2.954 2.175,-5.198 5.176,-5.198 C -2.199,-5.198 0,-2.954 0,0 m -11.244,0 c 0,3.389 2.588,5.999 6.069,5.999 3.48,0 6.068,-2.61 6.068,-5.999 0,-3.389 -2.588,-6 -6.068,-6 -3.481,0 -6.069,2.611 -6.069,6" style="fill:#2bb88b;fill-opacity:1;fill-rule:nonzero;stroke:#2bb88b;stroke-width:1.52475;stroke-miterlimit:4;stroke-dasharray:none;stroke-opacity:1" id="path120"/></g><g id="g122" transform="translate(548.0432,232.2629)"><path d="m 0,0 v -7.121 h -0.869 v 7.075 c 0,2.336 -1.535,3.848 -3.847,3.848 -2.451,0 -4.099,-1.718 -4.099,-3.986 V -7.121 H -9.686 V 4.328 h 0.825 v -2.13 c 0.756,1.444 2.267,2.405 4.258,2.405 C -1.854,4.603 0,2.771 0,0" style="fill:#2bb88b;fill-opacity:1;fill-rule:nonzero;stroke:#2bb88b;stroke-width:1.52475;stroke-miterlimit:4;stroke-dasharray:none;stroke-opacity:1" id="path124"/></g><g id="g126" transform="translate(561.7356,229.218)"><path d="m 0,0 v 1.03 c -0.939,0.549 -2.497,1.099 -4.031,1.099 -2.267,0 -3.801,-1.145 -3.801,-2.907 0,-1.65 1.42,-2.772 3.503,-2.772 C -2.108,-3.55 0,-2.268 0,0 M 0.847,3.319 V -4.076 H 0 v 1.923 c -0.871,-1.419 -2.542,-2.199 -4.351,-2.199 -2.588,0 -4.375,1.444 -4.375,3.596 0,2.198 1.902,3.664 4.673,3.664 1.511,0 2.953,-0.435 4.053,-1.054 v 1.581 c 0,2.014 -1.466,3.412 -3.71,3.412 -1.466,0 -2.908,-0.642 -3.915,-1.626 H -7.74 l -0.389,0.526 v 0.092 c 1.075,1.076 2.725,1.808 4.419,1.808 2.839,0 4.557,-1.694 4.557,-4.328" style="fill:#2bb88b;fill-opacity:1;fill-rule:nonzero;stroke:#2bb88b;stroke-width:1.52475;stroke-miterlimit:4;stroke-dasharray:none;stroke-opacity:1" id="path128"/></g><g id="g130" transform="translate(568.6951,240.6438)"><path d="M 0,0 0.779,0.115 0.871,0.047 V -15.502 H 0 Z" style="fill:#2bb88b;fill-opacity:1;fill-rule:nonzero;stroke:#2bb88b;stroke-width:1.52475;stroke-miterlimit:4;stroke-dasharray:none;stroke-opacity:1" id="path132"/></g><g id="g134" transform="translate(583.51,229.218)"><path d="m 0,0 v 1.03 c -0.94,0.549 -2.497,1.099 -4.031,1.099 -2.267,0 -3.801,-1.145 -3.801,-2.907 0,-1.65 1.42,-2.772 3.503,-2.772 C -2.108,-3.55 0,-2.268 0,0 M 0.847,3.319 V -4.076 H 0 v 1.923 c -0.871,-1.419 -2.542,-2.199 -4.351,-2.199 -2.588,0 -4.375,1.444 -4.375,3.596 0,2.198 1.902,3.664 4.672,3.664 1.512,0 2.954,-0.435 4.054,-1.054 v 1.581 c 0,2.014 -1.466,3.412 -3.71,3.412 -1.466,0 -2.908,-0.642 -3.915,-1.626 H -7.74 l -0.389,0.526 v 0.092 c 1.075,1.076 2.725,1.808 4.419,1.808 2.839,0 4.557,-1.694 4.557,-4.328" style="fill:#2bb88b;fill-opacity:1;fill-rule:nonzero;stroke:#2bb88b;stroke-width:1.52475;stroke-miterlimit:4;stroke-dasharray:none;stroke-opacity:1" id="path136"/></g><g id="g138" transform="translate(293.2009,288.6867)"><path d="m 0,0 c -6.162,3.483 -13.561,1.681 -17.477,-4.249 -0.656,-0.993 -1.451,-1.826 -2.353,-2.531 -2.092,-1.854 -4.897,-3.028 -7.617,-3.028 -5.304,0 -9.604,4.3 -9.604,9.604 0,5.304 5.623,9.798 10.92,10.052 0.221,0.01 0.434,0 0.649,-0.005 0.418,0.054 0.844,0.095 1.282,0.115 7.648,0.345 13.038,7.169 12.016,14.784 -0.993,7.398 -8.088,12.444 -15.471,11.004 -6.917,-1.153 -12.817,-9.315 -9.401,-17.962 3.118,-7.895 -1.679,-15.254 -9.881,-16.136 -2.505,0.049 -5.046,-0.641 -7.309,-2.076 -0.005,-0.003 -0.01,-0.007 -0.016,-0.009 -0.547,-0.348 -1.083,-0.723 -1.591,-1.159 -5.668,-4.855 -6.046,-13.553 -0.823,-18.966 1.916,-2.099 4.711,-3.415 7.713,-3.752 2.603,-0.357 5.32,0.043 7.751,1.313 2.112,1.103 3.793,2.652 4.99,4.468 0.164,0.25 1.062,1.435 1.375,1.741 5.277,5.137 13.253,4.292 17.851,-2.143 5.561,-7.781 17.443,-7.314 22.183,1.806 C 8.367,-11.01 5.906,-3.338 0,0" style="fill:#2bb88b;fill-opacity:1;fill-rule:nonzero;stroke:none;stroke-opacity:1" id="path140"/></g></g></g></g></svg>